<svg width="26" height="26" viewBox="0 0 26 26" fill="none" xmlns="http://www.w3.org/2000/svg">
<path fill-rule="evenodd" clip-rule="evenodd" d="M4.99976 5.00003V3.22269C4.99976 1.99467 5.99443 1 7.22244 1H22.7786C24.0052 1 24.9999 1.99467 24.9999 3.22269V18.7788C24.9999 20.0055 24.0052 21.0002 22.7772 21.0002H20.9999" fill="#1CA5AE"/>
<path d="M4.99976 5.00003V3.22269C4.99976 1.99468 5.99443 1 7.22244 1H22.7786C24.0052 1 24.9999 1.99468 24.9999 3.22269V18.7788C24.9999 20.0055 24.0052 21.0002 22.7772 21.0002H20.9999" stroke="#1CA5AE" stroke-width="1.5" stroke-linecap="round" stroke-linejoin="round"/>
<path fill-rule="evenodd" clip-rule="evenodd" d="M18.7775 25H3.22269C1.99467 25 1 24.0053 1 22.7773V7.2225C1 5.99449 1.99467 4.99982 3.22269 4.99982H18.7788C20.0055 4.99982 21.0002 5.99449 21.0002 7.2225V22.7786C21.0002 24.0053 20.0055 25 18.7775 25Z" fill="#4DCBD3" stroke="#4DCBD3" stroke-width="1.5" stroke-linecap="round" stroke-linejoin="round"/>
<path fill-rule="evenodd" clip-rule="evenodd" d="M15.3322 21.6633H6.66908C6.30104 21.6633 6.00269 21.365 6.00269 20.997V20.4558C6.00708 18.9163 7.25402 17.6694 8.79355 17.665H13.2077C14.7473 17.6694 15.9942 18.9163 15.9986 20.4558V20.997C15.9986 21.365 15.7002 21.6633 15.3322 21.6633Z" fill="#FFDD76" stroke="#FFDD76" stroke-width="1.5" stroke-linecap="round" stroke-linejoin="round"/>
<path fill-rule="evenodd" clip-rule="evenodd" d="M10.6653 14.3312C9.19455 14.3312 8.00171 13.1399 7.99976 11.6691C7.99781 10.1984 9.18747 9.00394 10.6582 9.00001C12.129 8.9961 13.325 10.1842 13.3309 11.6549C13.3337 12.3637 13.0541 13.0445 12.5539 13.5467C12.0537 14.0489 11.3741 14.3312 10.6653 14.3312Z" fill="#FFDD76" stroke="#FFDD76" stroke-width="1.5" stroke-linecap="round" stroke-linejoin="round"/>
</svg>
